<svg width="72" height="61" viewBox="0 0 72 61" fill="none" xmlns="http://www.w3.org/2000/svg">
<path d="M17 23.4994C17 23.223 17.2236 22.9999 17.4991 22.9999L37.5302 23L60.506 23C60.7751 23 60.9992 23.2167 60.9992 23.4999C60.9992 23.7798 60.7752 23.9998 60.503 23.9998L37.5302 23.9998L17.4925 23.9998C17.2245 23.9998 17 23.784 17 23.4994Z" fill="black" stroke="black" stroke-width="4"/>
<path d="M17 35.4074C17 35.2607 17.1141 35.1521 17.2481 35.1501C20.9605 35.0966 28.98 35 38.5294 35C48.226 35 56.852 35.0996 60.7573 35.1526C60.8864 35.1544 61 35.2581 61 35.4074C61 35.6547 60.8048 35.8468 60.5685 35.8499C56.5788 35.9035 48.0725 36 38.5294 36H38.4752H38.421H38.3668H38.3127H38.2586H38.2045H38.1505H38.0965H38.0425H37.9886H37.9347H37.8809H37.827H37.7732H37.7195H37.6658H37.6121H37.5584H37.5048H37.4512H37.3977H37.3442H37.2907H37.2372H37.1838H37.1305H37.0771H37.0238H36.9706H36.9173H36.8641H36.811H36.7579H36.7048H36.6517H36.5987H36.5458H36.4928H36.4399H36.3871H36.3343H36.2815H36.2287H36.176H36.1233H36.0707H36.0181H35.9656H35.913H35.8606H35.8081H35.7557H35.7033H35.651H35.5987H35.5465H35.4943H35.4421H35.39H35.3379H35.2858H35.2338H35.1819H35.1299H35.078H35.0262H34.9744H34.9226H34.8709H34.8192H34.7675H34.7159H34.6644H34.6128H34.5614H34.5099H34.4585H34.4072H34.3558H34.3046H34.2533H34.2021H34.151H34.0999H34.0488H33.9978H33.9468H33.8959H33.845H33.7941H33.7433H33.6926H33.6418H33.5912H33.5405H33.4899H33.4394H33.3889H33.3384H33.288H33.2376H33.1873H33.137H33.0868H33.0366H32.9864H32.9363H32.8863H32.8362H32.7863H32.7364H32.6865H32.6366H32.5869H32.5371H32.4874H32.4378H32.3882H32.3386H32.2891H32.2396H32.1902H32.1408H32.0915H32.0422H31.993H31.9438H31.8947H31.8456H31.7965H31.7475H31.6986H31.6497H31.6008H31.552H31.5033H31.4546H31.4059H31.3573H31.3087H31.2602H31.2118H31.1633H31.115H31.0667H31.0184H30.9702H30.922H30.8739H30.8258H30.7778H30.7298H30.6819H30.634H30.5862H30.5384H30.4907H30.443H30.3954H30.3479H30.3003H30.2529H30.2055H30.1581H30.1108H30.0635H30.0163H29.9692H29.9221H29.875H29.828H29.7811H29.7342H29.6873H29.6405H29.5938H29.5471H29.5005H29.4539H29.4074H29.3609H29.3145H29.2681H29.2218H29.1755H29.1293H29.0831H29.0371H28.991H28.945H28.8991H28.8532H28.8074H28.7616H28.7159H28.6702H28.6246H28.579H28.5335H28.4881H28.4427H28.3974H28.3521H28.3069H28.2617H28.2166H28.1716H28.1266H28.0816H28.0367H27.9919H27.9471H27.9024H27.8578H27.8132H27.7686H27.7241H27.6797H27.6353H27.591H27.5468H27.5026H27.4584H27.4144H27.3703H27.3264H27.2825H27.2386H27.1948H27.1511H27.1074H27.0638H27.0203H26.9768H26.9333H26.8899H26.8466H26.8034H26.7602H26.717H26.674H26.6309H26.588H26.5451H26.5022H26.4595H26.4168H26.3741H26.3315H26.289H26.2465H26.2041H26.1617H26.1194H26.0772H26.0351H25.9929H25.9509H25.9089H25.867H25.8252H25.7834H25.7416H25.7H25.6584H25.6168H25.5753H25.5339H25.4926H25.4513H25.41H25.3689H25.3278H25.2867H25.2458H25.2049H25.164H25.1232H25.0825H25.0419H25.0013H24.9607H24.9203H24.8799H24.8396H24.7993H24.7591H24.719H24.6789H24.6389H24.599H24.5591H24.5193H24.4795H24.4399H24.4003H24.3607H24.3212H24.2818H24.2425H24.2032H24.164H24.1249H24.0858H24.0468H24.0078H23.969H23.9302H23.8914H23.8528H23.8142H23.7756H23.7372H23.6988H23.6604H23.6222H23.584H23.5458H23.5078H23.4698H23.4319H23.394H23.3563H23.3185H23.2809H23.2433H23.2058H23.1684H23.131H23.0937H23.0565H23.0194H22.9823H22.9453H22.9083H22.8715H22.8347H22.7979H22.7613H22.7247H22.6882H22.6517H22.6154H22.5791H22.5428H22.5067H22.4706H22.4346H22.3986H22.3628H22.327H22.2912H22.2556H22.22H22.1845H22.1491H22.1137H22.0784H22.0432H22.0081H21.973H21.938H21.9031H21.8682H21.8335H21.7988H21.7642H21.7296H21.6951H21.6607H21.6264H21.5922H21.558H21.5239H21.4898H21.4559H21.422H21.3882H21.3545H21.3208H21.2873H21.2538H21.2203H21.187H21.1537H21.1205H21.0874H21.0544H21.0214H20.9885H20.9557H20.923H20.8903H20.8577H20.8252H20.7928H20.7605H20.7282H20.696H20.6639H20.6319H20.5999H20.568H20.5362H20.5045H20.4729H20.4413H20.4098H20.3784H20.3471H20.3158H20.2846H20.2535H20.2225H20.1916H20.1607H20.13H20.0993H20.0687H20.0381H20.0077H19.9773H19.947H19.9168H19.8867H19.8566H19.8267H19.7968H19.767H19.7372H19.7076H19.678H19.6485H19.6191H19.5898H19.5606H19.5314H19.5024H19.4734H19.4445H19.4156H19.3869H19.3582H19.3297H19.3012H19.2728H19.2444H19.2162H19.188H19.16H19.132H19.1041H19.0762H19.0485H19.0208H18.9933H18.9658H18.9384H18.911H18.8838H18.8567H18.8296H18.8026H18.7757H18.7489H18.7222H18.6955H18.669H18.6425H18.6161H18.5898H18.5636H18.5375H18.5114H18.4855H18.4596H18.4338H18.4082H18.3825H18.357H18.3316H18.3063H18.281H18.2558H18.2307H18.2057H18.1808H18.156H18.1313H18.1066H18.0821H18.0576H18.0332H18.0089H17.9847H17.9606H17.9366H17.9127H17.8888H17.8651H17.8414H17.8178H17.7943H17.7709H17.7476H17.7244H17.7013H17.6782H17.6553H17.6324H17.6096H17.5869C17.2653 36 17 35.7404 17 35.4074Z" stroke="black" stroke-width="4"/>
<path d="M62.2152 45.6501C63.906 47.1873 62.824 50 60.5389 50H38.5H17.9439C15.1549 50 14.4644 46.1243 17.0798 45.1556L17.7744 47.0311C17.8325 47.0096 17.8882 47 17.9448 47H17.9564H17.9681H17.98H17.992H18.0042H18.0165H18.029H18.0416H18.0544H18.0673H18.0803H18.0935H18.1069H18.1203H18.134H18.1477H18.1617H18.1757H18.1899H18.2043H18.2188H18.2334H18.2482H18.2631H18.2782H18.2934H18.3088H18.3243H18.3399H18.3557H18.3716H18.3877H18.4039H18.4203H18.4368H18.4534H18.4702H18.4871H18.5042H18.5214H18.5388H18.5563H18.5739H18.5917H18.6096H18.6276H18.6458H18.6642H18.6827H18.7013H18.7201H18.739H18.758H18.7772H18.7965H18.816H18.8356H18.8553H18.8752H18.8952H18.9154H18.9357H18.9562H18.9767H18.9975H19.0183H19.0393H19.0605H19.0817H19.1032H19.1247H19.1464H19.1682H19.1902H19.2123H19.2345H19.2569H19.2794H19.3021H19.3249H19.3478H19.3709H19.3941H19.4174H19.4409H19.4645H19.4883H19.5122H19.5362H19.5604H19.5847H19.6091H19.6337H19.6584H19.6832H19.7082H19.7333H19.7586H19.7839H19.8095H19.8351H19.8609H19.8868H19.9129H19.9391H19.9654H19.9919H20.0185H20.0452H20.0721H20.0991H20.1262H20.1535H20.1809H20.2084H20.2361H20.2639H20.2918H20.3199H20.348H20.3764H20.4048H20.4334H20.4622H20.491H20.52H20.5491H20.5784H20.6078H20.6373H20.667H20.6968H20.7267H20.7567H20.7869H20.8172H20.8476H20.8782H20.9089H20.9397H20.9707H21.0018H21.033H21.0644H21.0959H21.1275H21.1592H21.1911H21.2231H21.2552H21.2875H21.3199H21.3524H21.3851H21.4178H21.4507H21.4838H21.5169H21.5502H21.5837H21.6172H21.6509H21.6847H21.7186H21.7527H21.7869H21.8212H21.8556H21.8902H21.9249H21.9597H21.9947H22.0298H22.065H22.1003H22.1358H22.1714H22.2071H22.2429H22.2789H22.315H22.3512H22.3875H22.424H22.4606H22.4973H22.5342H22.5711H22.6082H22.6455H22.6828H22.7203H22.7579H22.7956H22.8334H22.8714H22.9095H22.9477H22.9861H23.0245H23.0631H23.1018H23.1407H23.1796H23.2187H23.2579H23.2972H23.3367H23.3763H23.416H23.4558H23.4957H23.5358H23.576H23.6163H23.6567H23.6973H23.738H23.7788H23.8197H23.8607H23.9019H23.9432H23.9846H24.0261H24.0677H24.1095H24.1514H24.1934H24.2355H24.2778H24.3202H24.3626H24.4053H24.448H24.4908H24.5338H24.5769H24.6201H24.6634H24.7069H24.7505H24.7941H24.8379H24.8819H24.9259H24.9701H25.0144H25.0588H25.1033H25.1479H25.1927H25.2375H25.2825H25.3276H25.3728H25.4182H25.4636H25.5092H25.5549H25.6007H25.6467H25.6927H25.7389H25.7851H25.8315H25.878H25.9247H25.9714H26.0183H26.0652H26.1123H26.1595H26.2069H26.2543H26.3018H26.3495H26.3973H26.4452H26.4932H26.5413H26.5896H26.6379H26.6864H26.735H26.7837H26.8325H26.8814H26.9305H26.9796H27.0289H27.0783H27.1278H27.1774H27.2271H27.2769H27.3269H27.3769H27.4271H27.4774H27.5278H27.5783H27.6289H27.6797H27.7305H27.7815H27.8326H27.8837H27.935H27.9864H28.038H28.0896H28.1413H28.1932H28.2451H28.2972H28.3494H28.4017H28.4541H28.5066H28.5592H28.612H28.6648H28.7178H28.7708H28.824H28.8773H28.9307H28.9842H29.0378H29.0915H29.1454H29.1993H29.2534H29.3075H29.3618H29.4162H29.4706H29.5252H29.5799H29.6347H29.6897H29.7447H29.7998H29.855H29.9104H29.9658H30.0214H30.0771H30.1328H30.1887H30.2447H30.3008H30.357H30.4133H30.4697H30.5263H30.5829H30.6396H30.6965H30.7534H30.8105H30.8676H30.9249H30.9822H31.0397H31.0973H31.155H31.2128H31.2706H31.3286H31.3867H31.4449H31.5033H31.5617H31.6202H31.6788H31.7375H31.7964H31.8553H31.9143H31.9735H32.0327H32.0921H32.1515H32.2111H32.2707H32.3305H32.3903H32.4503H32.5104H32.5705H32.6308H32.6912H32.7516H32.8122H32.8729H32.9337H32.9946H33.0555H33.1166H33.1778H33.2391H33.3005H33.362H33.4236H33.4852H33.547H33.6089H33.6709H33.733H33.7952H33.8575H33.9199H33.9824H34.0449H34.1076H34.1704H34.2333H34.2963H34.3594H34.4226H34.4858H34.5492H34.6127H34.6763H34.74H34.8037H34.8676H34.9316H34.9957H35.0598H35.1241H35.1884H35.2529H35.3175H35.3821H35.4469H35.5117H35.5767H35.6417H35.7068H35.7721H35.8374H35.9028H35.9684H36.034H36.0997H36.1655H36.2314H36.2974H36.3635H36.4297H36.496H36.5624H36.6289H36.6954H36.7621H36.8289H36.8957H36.9627H37.0297H37.0969H37.1641H37.2314H37.2989H37.3664H37.434H37.5017H37.5695H37.6374H37.7054H37.7735H37.8416H37.9099H37.9782H38.0467H38.1152H38.1839H38.2526H38.3214H38.3903H38.4593H38.5284H38.5976H38.6669H38.7363H38.8057H38.8753H38.9449H39.0147H39.0845H39.1544H39.2244H39.2945H39.3647H39.435H39.5054H39.5758H39.6464H39.717H39.7878H39.8586H39.9295H40.0005H40.0716H40.1428H40.214H40.2854H40.3568H40.4284H40.5H40.5646H40.6291H40.6935H40.7579H40.8221H40.8862H40.9502H41.0141H41.0779H41.1416H41.2052H41.2688H41.3322H41.3955H41.4587H41.5218H41.5848H41.6477H41.7105H41.7732H41.8358H41.8983H41.9607H42.0231H42.0853H42.1474H42.2094H42.2713H42.3331H42.3948H42.4564H42.5179H42.5793H42.6406H42.7018H42.7629H42.8239H42.8848H42.9456H43.0063H43.0669H43.1274H43.1878H43.2481H43.3083H43.3684H43.4284H43.4883H43.5481H43.6078H43.6674H43.7269H43.7863H43.8456H43.9048H43.9639H44.0229H44.0818H44.1406H44.1993H44.2579H44.3164H44.3748H44.4331H44.4913H44.5494H44.6074H44.6653H44.7231H44.7808H44.8384H44.8959H44.9533H45.0106H45.0678H45.1249H45.1819H45.2388H45.2956H45.3523H45.4089H45.4654H45.5218H45.5781H45.6343H45.6903H45.7463H45.8022H45.858H45.9137H45.9693H46.0248H46.0802H46.1355H46.1907H46.2458H46.3008H46.3557H46.4105H46.4652H46.5198H46.5743H46.6287H46.683H46.7372H46.7913H46.8452H46.8991H46.9529H47.0066H47.0602H47.1137H47.1671H47.2204H47.2736H47.3267H47.3797H47.4326H47.4854H47.5381H47.5907H47.6432H47.6956H47.7479H47.8001H47.8522H47.9042H47.9561H48.0079H48.0595H48.1111H48.1626H48.214H48.2653H48.3165H48.3676H48.4186H48.4695H48.5203H48.571H48.6216H48.6721H48.7225H48.7728H48.823H48.8731H48.9231H48.973H49.0228H49.0725H49.1221H49.1716H49.221H49.2703H49.3195H49.3686H49.4176H49.4665H49.5153H49.564H49.6126H49.6611H49.7095H49.7578H49.806H49.8541H49.9021H49.95H49.9978H50.0455H50.0931H50.1406H50.188H50.2354H50.2826H50.3297H50.3767H50.4236H50.4704H50.5171H50.5637H50.6102H50.6566H50.7029H50.7491H50.7952H50.8412H50.8871H50.933H50.9787H51.0243H51.0698H51.1152H51.1605H51.2057H51.2508H51.2958H51.3408H51.3856H51.4303H51.4749H51.5194H51.5638H51.6081H51.6524H51.6965H51.7405H51.7844H51.8282H51.8719H51.9156H51.9591H52.0025H52.0458H52.089H52.1322H52.1752H52.2181H52.2609H52.3036H52.3463H52.3888H52.4312H52.4735H52.5158H52.5579H52.5999H52.6418H52.6837H52.7254H52.767H52.8085H52.85H52.8913H52.9325H52.9736H53.0147H53.0556H53.0964H53.1372H53.1778H53.2183H53.2588H53.2991H53.3393H53.3795H53.4195H53.4594H53.4993H53.539H53.5786H53.6182H53.6576H53.697H53.7362H53.7753H53.8144H53.8533H53.8922H53.9309H53.9695H54.0081H54.0465H54.0849H54.1231H54.1613H54.1993H54.2373H54.2751H54.3129H54.3505H54.3881H54.4255H54.4629H54.5001H54.5373H54.5743H54.6113H54.6481H54.6849H54.7215H54.7581H54.7946H54.8309H54.8672H54.9033H54.9394H54.9754H55.0112H55.047H55.0826H55.1182H55.1537H55.189H55.2243H55.2595H55.2945H55.3295H55.3644H55.3991H55.4338H55.4684H55.5029H55.5372H55.5715H55.6057H55.6397H55.6737H55.7076H55.7414H55.7751H55.8086H55.8421H55.8755H55.9088H55.942H55.975H56.008H56.0409H56.0737H56.1064H56.139H56.1715H56.2038H56.2361H56.2683H56.3004H56.3324H56.3643H56.3961H56.4278H56.4594H56.4909H56.5223H56.5536H56.5848H56.6159H56.6469H56.6778H56.7086H56.7393H56.7699H56.8004H56.8308H56.8611H56.8913H56.9214H56.9514H56.9813H57.0112H57.0409H57.0705H57.1H57.1294H57.1587H57.188H57.2171H57.2461H57.275H57.3038H57.3326H57.3612H57.3897H57.4181H57.4465H57.4747H57.5028H57.5308H57.5588H57.5866H57.6143H57.642H57.6695H57.6969H57.7243H57.7515H57.7787H57.8057H57.8326H57.8595H57.8862H57.9129H57.9394H57.9659H57.9922H58.0185H58.0446H58.0707H58.0966H58.1225H58.1482H58.1739H58.1994H58.2249H58.2502H58.2755H58.3007H58.3257H58.3507H58.3756H58.4003H58.425H58.4496H58.474H58.4984H58.5227H58.5468H58.5709H58.5949H58.6188H58.6425H58.6662H58.6898H58.7133H58.7367H58.7599H58.7831H58.8062H58.8292H58.8521H58.8749H58.8976H58.9202H58.9426H58.965H58.9873H59.0095H59.0316H59.0536H59.0755H59.0973H59.119H59.1406H59.1621H59.1835H59.2049H59.2261H59.2472H59.2682H59.2891H59.3099H59.3306H59.3512H59.3718H59.3922H59.4125H59.4327H59.4528H59.4729H59.4928H59.5126H59.5323H59.552H59.5715H59.5909H59.6103H59.6295H59.6486H59.6677H59.6866H59.7055H59.7242H59.7429H59.7614H59.7798H59.7982H59.8164H59.8346H59.8526H59.8706H59.8884H59.9062H59.9239H59.9414H59.9589H59.9762H59.9935H60.0107H60.0277H60.0447H60.0616H60.0783H60.095H60.1116H60.1281H60.1444H60.1607H60.1769H60.193H60.209H60.2248H60.2406H60.2563H60.2719H60.2874H60.3028H60.3181H60.3333H60.3484H60.3634H60.3783H60.3931H60.4078H60.4224H60.4369H60.4513H60.4656H60.4798H60.4939H60.5079H60.5218H60.5356C60.6582 47 60.7764 47.0451 60.8698 47.13L62.2152 45.6501ZM62.2152 45.6501L60.8698 47.13C61.2152 47.444 60.9862 48 60.5389 48M62.2152 45.6501L60.5389 48M60.5389 48H60.5066M60.5389 48H60.5066M60.5066 48H60.4741M60.5066 48H60.4741M60.4741 48H60.4416M60.4741 48H60.4416M60.4416 48H60.4091M60.4416 48H60.4091M60.4091 48H60.3764M60.4091 48H60.3764M60.3764 48H60.3438M60.3764 48H60.3438M60.3438 48H60.311M60.3438 48H60.311M60.311 48H60.2782M60.311 48H60.2782M60.2782 48H60.2453M60.2782 48H60.2453M60.2453 48H60.2124M60.2453 48H60.2124M60.2124 48H60.1794M60.2124 48H60.1794M60.1794 48H60.1463M60.1794 48H60.1463M60.1463 48H60.1132M60.1463 48H60.1132M60.1132 48H60.08M60.1132 48H60.08M60.08 48H60.0467M60.08 48H60.0467M60.0467 48H60.0134M60.0467 48H60.0134M60.0134 48H59.98M60.0134 48H59.98M59.98 48H59.9466M59.98 48H59.9466M59.9466 48H59.9131M59.9466 48H59.9131M59.9131 48H59.8795M59.9131 48H59.8795M59.8795 48H59.8459M59.8795 48H59.8459M59.8459 48H59.8122M59.8459 48H59.8122M59.8122 48H59.7785M59.8122 48H59.7785M59.7785 48H59.7446M59.7785 48H59.7446M59.7446 48H59.7108M59.7446 48H59.7108M59.7108 48H59.6768M59.7108 48H59.6768M59.6768 48H59.6429M59.6768 48H59.6429M59.6429 48H59.6088M59.6429 48H59.6088M59.6088 48H59.5747M59.6088 48H59.5747M59.5747 48H59.5405M59.5747 48H59.5405M59.5405 48H59.5063M59.5405 48H59.5063M59.5063 48H59.472M59.5063 48H59.472M59.472 48H59.4376M59.472 48H59.4376M59.4376 48H59.4032M59.4376 48H59.4032M59.4032 48H59.3687M59.4032 48H59.3687M59.3687 48H59.3342M59.3687 48H59.3342M59.3342 48H59.2996M59.3342 48H59.2996M59.2996 48H59.265M59.2996 48H59.265M59.265 48H59.2302M59.265 48H59.2302M59.2302 48H59.1955M59.2302 48H59.1955M59.1955 48H59.1606M59.1955 48H59.1606M59.1606 48H59.1258M59.1606 48H59.1258M59.1258 48H59.0908M59.1258 48H59.0908M59.0908 48H59.0558M59.0908 48H59.0558M59.0558 48H59.0207M59.0558 48H59.0207M59.0207 48H58.9856M59.0207 48H58.9856M58.9856 48H58.9504M58.9856 48H58.9504M58.9504 48H58.9152M58.9504 48H58.9152M58.9152 48H58.8799M58.9152 48H58.8799M58.8799 48H58.8445M58.8799 48H58.8445M58.8445 48H58.8091M58.8445 48H58.8091M58.8091 48H58.7736M58.8091 48H58.7736M58.7736 48H58.7381M58.7736 48H58.7381M58.7381 48H58.7025M58.7381 48H58.7025M58.7025 48H58.6669M58.7025 48H58.6669M58.6669 48H58.6312M58.6669 48H58.6312M58.6312 48H58.5954M58.6312 48H58.5954M58.5954 48H58.5596M58.5954 48H58.5596M58.5596 48H58.5238M58.5596 48H58.5238M58.5238 48H58.4878M58.5238 48H58.4878M58.4878 48H58.4518M58.4878 48H58.4518M58.4518 48H58.4158M58.4518 48H58.4158M58.4158 48H58.3797M58.4158 48H58.3797M58.3797 48H58.3436M58.3797 48H58.3436M58.3436 48H58.3074M58.3436 48H58.3074M58.3074 48H58.2711M58.3074 48H58.2711M58.2711 48H58.2348M58.2711 48H58.2348M58.2348 48H58.1984M58.2348 48H58.1984M58.1984 48H58.162M58.1984 48H58.162M58.162 48H58.1255M58.162 48H58.1255M58.1255 48H58.0889M58.1255 48H58.0889M58.0889 48H58.0524M58.0889 48H58.0524M58.0524 48H58.0157M58.0524 48H58.0157M58.0157 48H57.979M58.0157 48H57.979M57.979 48H57.9422M57.979 48H57.9422M57.9422 48H57.9054M57.9422 48H57.9054M57.9054 48H57.8686M57.9054 48H57.8686M57.8686 48H57.8316M57.8686 48H57.8316M57.8316 48H57.7947M57.8316 48H57.7947M57.7947 48H57.7576M57.7947 48H57.7576M57.7576 48H57.7206M57.7576 48H57.7206M57.7206 48H57.6834M57.7206 48H57.6834M57.6834 48H57.6462M57.6834 48H57.6462M57.6462 48H57.609M57.6462 48H57.609M57.609 48H57.5717M57.609 48H57.5717M57.5717 48H57.5344M57.5717 48H57.5344M57.5344 48H57.4969M57.5344 48H57.4969M57.4969 48H57.4595M57.4969 48H57.4595M57.4595 48H57.422M57.4595 48H57.422M57.422 48H57.3844M57.422 48H57.3844M57.3844 48H57.3468M57.3844 48H57.3468M57.3468 48H57.3092M57.3468 48H57.3092M57.3092 48H57.2714M57.3092 48H57.2714M57.2714 48H57.2337M57.2714 48H57.2337M57.2337 48H57.1958M57.2337 48H57.1958M57.1958 48H57.158M57.1958 48H57.158M57.158 48H57.12M57.158 48H57.12M57.12 48H57.0821M57.12 48H57.0821M57.0821 48H57.044M57.0821 48H57.044M57.044 48H57.006M57.044 48H57.006M57.006 48H56.9678M57.006 48H56.9678M56.9678 48H56.9297M56.9678 48H56.9297M56.9297 48H56.8914M56.9297 48H56.8914M56.8914 48H56.8531M56.8914 48H56.8531M56.8531 48H56.8148M56.8531 48H56.8148M56.8148 48H56.7764M56.8148 48H56.7764M56.7764 48H56.738M56.7764 48H56.738M56.738 48H56.6995M56.738 48H56.6995M56.6995 48H56.661M56.6995 48H56.661M56.661 48H56.6224M56.661 48H56.6224M56.6224 48H56.5838M56.6224 48H56.5838M56.5838 48H56.5451M56.5838 48H56.5451M56.5451 48H56.5064M56.5451 48H56.5064M56.5064 48H56.4676M56.5064 48H56.4676M56.4676 48H56.4287M56.4676 48H56.4287M56.4287 48H56.3899M56.4287 48H56.3899M56.3899 48H56.3509M56.3899 48H56.3509M56.3509 48H56.312M56.3509 48H56.312M56.312 48H56.2729M56.312 48H56.2729M56.2729 48H56.2339M56.2729 48H56.2339M56.2339 48H56.1947M56.2339 48H56.1947M56.1947 48H56.1556M56.1947 48H56.1556M56.1556 48H56.1163M56.1556 48H56.1163M56.1163 48H56.0771M56.1163 48H56.0771M56.0771 48H56.0378M56.0771 48H56.0378M56.0378 48H55.9984M56.0378 48H55.9984M55.9984 48H55.959M55.9984 48H55.959M55.959 48H55.9195M55.959 48H55.9195M55.9195 48H55.88M55.9195 48H55.88M55.88 48H55.8405M55.88 48H55.8405M55.8405 48H55.8009M55.8405 48H55.8009M55.8009 48H55.7612M55.8009 48H55.7612M55.7612 48H55.7215M55.7612 48H55.7215M55.7215 48H55.6818M55.7215 48H55.6818M55.6818 48H55.642M55.6818 48H55.642M55.642 48H55.6021M55.642 48H55.6021M55.6021 48H55.5623M55.6021 48H55.5623M55.5623 48H55.5223M55.5623 48H55.5223M55.5223 48H55.4824M55.5223 48H55.4824M55.4824 48H55.4423M55.4824 48H55.4423M55.4423 48H55.4023M55.4423 48H55.4023M55.4023 48H55.3622M55.4023 48H55.3622M55.3622 48H55.322M55.3622 48H55.322M55.322 48H55.2818M55.322 48H55.2818M55.2818 48H55.2416M55.2818 48H55.2416M55.2416 48H55.2013M55.2416 48H55.2013M55.2013 48H55.1609M55.2013 48H55.1609M55.1609 48H55.1206M55.1609 48H55.1206M55.1206 48H55.0801M55.1206 48H55.0801M55.0801 48H55.0396M55.0801 48H55.0396M55.0396 48H54.9991M55.0396 48H54.9991M54.9991 48H54.9586M54.9991 48H54.9586M54.9586 48H54.918M54.9586 48H54.918M54.918 48H54.8773M54.918 48H54.8773M54.8773 48H54.8366M54.8773 48H54.8366M54.8366 48H54.7959M54.8366 48H54.7959M54.7959 48H54.7551M54.7959 48H54.7551M54.7551 48H54.7143M54.7551 48H54.7143M54.7143 48H54.6734M54.7143 48H54.6734M54.6734 48H54.6325M54.6734 48H54.6325M54.6325 48H54.5915M54.6325 48H54.5915M54.5915 48H54.5505M54.5915 48H54.5505M54.5505 48H54.5095M54.5505 48H54.5095M54.5095 48H54.4684M54.5095 48H54.4684M54.4684 48H54.4273M54.4684 48H54.4273M54.4273 48H54.3861M54.4273 48H54.3861M54.3861 48H54.3449M54.3861 48H54.3449M54.3449 48H54.3037M54.3449 48H54.3037M54.3037 48H54.2624M54.3037 48H54.2624M54.2624 48H54.221M54.2624 48H54.221M54.221 48H54.1796M54.221 48H54.1796M54.1796 48H54.1382M54.1796 48H54.1382M54.1382 48H54.0968M54.1382 48H54.0968M54.0968 48H54.0553M54.0968 48H54.0553M54.0553 48H54.0137M54.0553 48H54.0137M54.0137 48H53.9721M54.0137 48H53.9721M53.9721 48H53.9305M53.9721 48H53.9305M53.9305 48H53.8888M53.9305 48H53.8888M53.8888 48H53.8471M53.8888 48H53.8471M53.8471 48H53.8054M53.8471 48H53.8054M53.8054 48H53.7636M53.8054 48H53.7636M53.7636 48H53.7217M53.7636 48H53.7217M53.7217 48H53.6799M53.7217 48H53.6799M53.6799 48H53.638M53.6799 48H53.638M53.638 48H53.596M53.638 48H53.596M53.596 48H53.554M53.596 48H53.554M53.554 48H53.512M53.554 48H53.512M53.512 48H53.4699M53.512 48H53.4699M53.4699 48H53.4278M53.4699 48H53.4278M53.4278 48H53.3856M53.4278 48H53.3856M53.3856 48H53.3434M53.3856 48H53.3434M53.3434 48H53.3012M53.3434 48H53.3012M53.3012 48H53.2589M53.3012 48H53.2589M53.2589 48H53.2166M53.2589 48H53.2166M53.2166 48H53.1743M53.2166 48H53.1743M53.1743 48H53.1319M53.1743 48H53.1319M53.1319 48H53.0895M53.1319 48H53.0895M53.0895 48H53.047M53.0895 48H53.047M53.047 48H53.0045M53.047 48H53.0045M53.0045 48H52.962M53.0045 48H52.962M52.962 48H52.9194M52.962 48H52.9194M52.9194 48H52.8768M52.9194 48H52.8768M52.8768 48H52.8341M52.8768 48H52.8341M52.8341 48H52.7915M52.8341 48H52.7915M52.7915 48H52.7487M52.7915 48H52.7487M52.7487 48H52.706M52.7487 48H52.706M52.706 48H52.6632M52.706 48H52.6632M52.6632 48H52.6203M52.6632 48H52.6203M52.6203 48H52.5774M52.6203 48H52.5774M52.5774 48H52.5345M52.5774 48H52.5345M52.5345 48H52.4916M52.5345 48H52.4916M52.4916 48H52.4486M52.4916 48H52.4486M52.4486 48H52.4056M52.4486 48H52.4056M52.4056 48H52.3625M52.4056 48H52.3625M52.3625 48H52.3194M52.3625 48H52.3194M52.3194 48H52.2763M52.3194 48H52.2763M52.2763 48H52.2331M52.2763 48H52.2331M52.2331 48H52.1899M52.2331 48H52.1899M52.1899 48H52.1467M52.1899 48H52.1467M52.1467 48H52.1034M52.1467 48H52.1034M52.1034 48H52.0601M52.1034 48H52.0601M52.0601 48H52.0168M52.0601 48H52.0168M52.0168 48H51.9734M52.0168 48H51.9734M51.9734 48H51.93M51.9734 48H51.93M51.93 48H51.8865M51.93 48H51.8865M51.8865 48H51.843M51.8865 48H51.843M51.843 48H51.7995M51.843 48H51.7995M51.7995 48H51.756M51.7995 48H51.756M51.756 48H51.7124M51.756 48H51.7124M51.7124 48H51.6688M51.7124 48H51.6688M51.6688 48H51.6251M51.6688 48H51.6251M51.6251 48H51.5814M51.6251 48H51.5814M51.5814 48H51.5377M51.5814 48H51.5377M51.5377 48H51.4939M51.5377 48H51.4939M51.4939 48H51.4501M51.4939 48H51.4501M51.4501 48H51.4063M51.4501 48H51.4063M51.4063 48H51.3625M51.4063 48H51.3625M51.3625 48H51.3186M51.3625 48H51.3186M51.3186 48H51.2747M51.3186 48H51.2747M51.2747 48H51.2307M51.2747 48H51.2307M51.2307 48H51.1867M51.2307 48H51.1867M51.1867 48H51.1427M51.1867 48H51.1427M51.1427 48H51.0986M51.1427 48H51.0986M51.0986 48H51.0546M51.0986 48H51.0546M51.0546 48H51.0104M51.0546 48H51.0104M51.0104 48H50.9663M51.0104 48H50.9663M50.9663 48H50.9221M50.9663 48H50.9221M50.9221 48H50.8779M50.9221 48H50.8779M50.8779 48H50.8336M50.8779 48H50.8336M50.8336 48H50.7894M50.8336 48H50.7894M50.7894 48H50.7451M50.7894 48H50.7451M50.7451 48H50.7007M50.7451 48H50.7007M50.7007 48H50.6564M50.7007 48H50.6564M50.6564 48H50.612M50.6564 48H50.612M50.612 48H50.5675M50.612 48H50.5675M50.5675 48H50.5231M50.5675 48H50.5231M50.5231 48H50.4786M50.5231 48H50.4786M50.4786 48H50.434M50.4786 48H50.434M50.434 48H50.3895M50.434 48H50.3895M50.3895 48H50.3449M50.3895 48H50.3449M50.3449 48H50.3003M50.3449 48H50.3003M50.3003 48H50.2556M50.3003 48H50.2556M50.2556 48H50.211M50.2556 48H50.211M50.211 48H50.1663M50.211 48H50.1663M50.1663 48H50.1215M50.1663 48H50.1215M50.1215 48H50.0768M50.1215 48H50.0768M50.0768 48H50.032M50.0768 48H50.032M50.032 48H49.9872M50.032 48H49.9872M49.9872 48H49.9423M49.9872 48H49.9423M49.9423 48H49.8974M49.9423 48H49.8974M49.8974 48H49.8525M49.8974 48H49.8525M49.8525 48H49.8076M49.8525 48H49.8076M49.8076 48H49.7626M49.8076 48H49.7626M49.7626 48H49.7176M49.7626 48H49.7176M49.7176 48H49.6726M49.7176 48H49.6726M49.6726 48H49.6275M49.6726 48H49.6275M49.6275 48H49.5825M49.6275 48H49.5825M49.5825 48H49.5374M49.5825 48H49.5374M49.5374 48H49.4922M49.5374 48H49.4922M49.4922 48H49.4471M49.4922 48H49.4471M49.4471 48H49.4019M49.4471 48H49.4019M49.4019 48H49.3567M49.4019 48H49.3567M49.3567 48H49.3114M49.3567 48H49.3114M49.3114 48H49.2661M49.3114 48H49.2661M49.2661 48H49.2208M49.2661 48H49.2208M49.2208 48H49.1755M49.2208 48H49.1755M49.1755 48H49.1302M49.1755 48H49.1302M49.1302 48H49.0848M49.1302 48H49.0848M49.0848 48H49.0394M49.0848 48H49.0394M49.0394 48H48.9939M49.0394 48H48.9939M48.9939 48H48.9485M48.9939 48H48.9485M48.9485 48H48.903M48.9485 48H48.903M48.903 48H48.8575M48.903 48H48.8575M48.8575 48H48.812M48.8575 48H48.812M48.812 48H48.7664M48.812 48H48.7664M48.7664 48H48.7208M48.7664 48H48.7208M48.7208 48H48.6752M48.7208 48H48.6752M48.6752 48H48.6296M48.6752 48H48.6296M48.6296 48H48.5839M48.6296 48H48.5839M48.5839 48H48.5382M48.5839 48H48.5382M48.5382 48H48.4925M48.5382 48H48.4925M48.4925 48H48.4468M48.4925 48H48.4468M48.4468 48H48.401M48.4468 48H48.401M48.401 48H48.3552M48.401 48H48.3552M48.3552 48H48.3094M48.3552 48H48.3094M48.3094 48H48.2636M48.3094 48H48.2636M48.2636 48H48.2177M48.2636 48H48.2177M48.2177 48H48.1719M48.2177 48H48.1719M48.1719 48H48.1259M48.1719 48H48.1259M48.1259 48H48.08M48.1259 48H48.08M48.08 48H48.0341M48.08 48H48.0341M48.0341 48H47.9881M48.0341 48H47.9881M47.9881 48H47.9421M47.9881 48H47.9421M47.9421 48H47.8961M47.9421 48H47.8961M47.8961 48H47.85M47.8961 48H47.85M47.85 48H47.804M47.85 48H47.804M47.804 48H47.7579M47.804 48H47.7579M47.7579 48H47.7117M47.7579 48H47.7117M47.7117 48H47.6656M47.7117 48H47.6656M47.6656 48H47.6195M47.6656 48H47.6195M47.6195 48H47.5733M47.6195 48H47.5733M47.5733 48H47.5271M47.5733 48H47.5271M47.5271 48H47.4808M47.5271 48H47.4808M47.4808 48H47.4346M47.4808 48H47.4346M47.4346 48H47.3883M47.4346 48H47.3883M47.3883 48H47.342M47.3883 48H47.342M47.342 48H47.2957M47.342 48H47.2957M47.2957 48H47.2494M47.2957 48H47.2494M47.2494 48H47.203M47.2494 48H47.203M47.203 48H47.1567M47.203 48H47.1567M47.1567 48H47.1103M47.1567 48H47.1103M47.1103 48H47.0639M47.1103 48H47.0639M47.0639 48H47.0174M47.0639 48H47.0174M47.0174 48H46.971M47.0174 48H46.971M46.971 48H46.9245M46.971 48H46.9245M46.9245 48H46.878M46.9245 48H46.878M46.878 48H46.8315M46.878 48H46.8315M46.8315 48H46.7849M46.8315 48H46.7849M46.7849 48H46.7384M46.7849 48H46.7384M46.7384 48H46.6918M46.7384 48H46.6918M46.6918 48H46.6452M46.6918 48H46.6452M46.6452 48H46.5986M46.6452 48H46.5986M46.5986 48H46.5519M46.5986 48H46.5519M46.5519 48H46.5053M46.5519 48H46.5053M46.5053 48H46.4586M46.5053 48H46.4586M46.4586 48H46.4119M46.4586 48H46.4119M46.4119 48H46.3652M46.4119 48H46.3652M46.3652 48H46.3185M46.3652 48H46.3185M46.3185 48H46.2717M46.3185 48H46.2717M46.2717 48H46.2249M46.2717 48H46.2249M46.2249 48H46.1782M46.2249 48H46.1782M46.1782 48H46.1314M46.1782 48H46.1314M46.1314 48H46.0845M46.1314 48H46.0845M46.0845 48H46.0377M46.0845 48H46.0377M46.0377 48H45.9908M46.0377 48H45.9908M45.9908 48H45.944M45.9908 48H45.944M45.944 48H45.8971M45.944 48H45.8971M45.8971 48H45.8502M45.8971 48H45.8502M45.8502 48H45.8032M45.8502 48H45.8032M45.8032 48H45.7563M45.8032 48H45.7563M45.7563 48H45.7093M45.7563 48H45.7093M45.7093 48H45.6623M45.7093 48H45.6623M45.6623 48H45.6153M45.6623 48H45.6153M45.6153 48H45.5683M45.6153 48H45.5683M45.5683 48H45.5213M45.5683 48H45.5213M45.5213 48H45.4743M45.5213 48H45.4743M45.4743 48H45.4272M45.4743 48H45.4272M45.4272 48H45.3801M45.4272 48H45.3801M45.3801 48H45.333M45.3801 48H45.333M45.333 48H45.2859M45.333 48H45.2859M45.2859 48H45.2388M45.2859 48H45.2388M45.2388 48H45.1917M45.2388 48H45.1917M45.1917 48H45.1445M45.1917 48H45.1445M45.1445 48H45.0973M45.1445 48H45.0973M45.0973 48H45.0501M45.0973 48H45.0501M45.0501 48H45.0029M45.0501 48H45.0029M45.0029 48H44.9557M45.0029 48H44.9557M44.9557 48H44.9085M44.9557 48H44.9085M44.9085 48H44.8612M44.9085 48H44.8612M44.8612 48H44.814M44.8612 48H44.814M44.814 48H44.7667M44.814 48H44.7667M44.7667 48H44.7194M44.7667 48H44.7194M44.7194 48H44.6721M44.7194 48H44.6721M44.6721 48H44.6248M44.6721 48H44.6248M44.6248 48H44.5775M44.6248 48H44.5775M44.5775 48H44.5301M44.5775 48H44.5301M44.5301 48H44.4828M44.5301 48H44.4828M44.4828 48H44.4354M44.4828 48H44.4354M44.4354 48H44.388M44.4354 48H44.388M44.388 48H44.3406M44.388 48H44.3406M44.3406 48H44.2932M44.3406 48H44.2932M44.2932 48H44.2458M44.2932 48H44.2458M44.2458 48H44.1983M44.2458 48H44.1983M44.1983 48H44.1509M44.1983 48H44.1509M44.1509 48H44.1034M44.1509 48H44.1034M44.1034 48H44.056M44.1034 48H44.056M44.056 48H44.0085M44.056 48H44.0085M44.0085 48H43.961M44.0085 48H43.961M43.961 48H43.9135M43.961 48H43.9135M43.9135 48H43.8659M43.9135 48H43.8659M43.8659 48H43.8184M43.8659 48H43.8184M43.8184 48H43.7709M43.8184 48H43.7709M43.7709 48H43.7233M43.7709 48H43.7233M43.7233 48H43.6757M43.7233 48H43.6757M43.6757 48H43.6282M43.6757 48H43.6282M43.6282 48H43.5806M43.6282 48H43.5806M43.5806 48H43.533M43.5806 48H43.533M43.533 48H43.4854M43.533 48H43.4854M43.4854 48H43.4377M43.4854 48H43.4377M43.4377 48H43.3901M43.4377 48H43.3901M43.3901 48H43.3425M43.3901 48H43.3425M43.3425 48H43.2948M43.3425 48H43.2948M43.2948 48H43.2471M43.2948 48H43.2471M43.2471 48H43.1995M43.2471 48H43.1995M43.1995 48H43.1518M43.1995 48H43.1518M43.1518 48H43.1041M43.1518 48H43.1041M43.1041 48H43.0564M43.1041 48H43.0564M43.0564 48H43.0087M43.0564 48H43.0087M43.0087 48H42.9609M43.0087 48H42.9609M42.9609 48H42.9132M42.9609 48H42.9132M42.9132 48H42.8655M42.9132 48H42.8655M42.8655 48H42.8177M42.8655 48H42.8177M42.8177 48H42.77M42.8177 48H42.77M42.77 48H42.7222M42.77 48H42.7222M42.7222 48H42.6744M42.7222 48H42.6744M42.6744 48H42.6266M42.6744 48H42.6266M42.6266 48H42.5788M42.6266 48H42.5788M42.5788 48H42.531M42.5788 48H42.531M42.531 48H42.4832M42.531 48H42.4832M42.4832 48H42.4354M42.4832 48H42.4354M42.4354 48H42.3876M42.4354 48H42.3876M42.3876 48H42.3398M42.3876 48H42.3398M42.3398 48H42.2919M42.3398 48H42.2919M42.2919 48H42.2441M42.2919 48H42.2441M42.2441 48H42.1962M42.2441 48H42.1962M42.1962 48H42.1484M42.1962 48H42.1484M42.1484 48H42.1005M42.1484 48H42.1005M42.1005 48H42.0526M42.1005 48H42.0526M42.0526 48H42.0047M42.0526 48H42.0047M42.0047 48H41.9568M42.0047 48H41.9568M41.9568 48H41.909M41.9568 48H41.909M41.909 48H41.861M41.909 48H41.861M41.861 48H41.8131M41.861 48H41.8131M41.8131 48H41.7652M41.8131 48H41.7652M41.7652 48H41.7173M41.7652 48H41.7173M41.7173 48H41.6694M41.7173 48H41.6694M41.6694 48H41.6215M41.6694 48H41.6215M41.6215 48H41.5735M41.6215 48H41.5735M41.5735 48H41.5256M41.5735 48H41.5256M41.5256 48H41.4776M41.5256 48H41.4776M41.4776 48H41.4297M41.4776 48H41.4297M41.4297 48H41.3817M41.4297 48H41.3817M41.3817 48H41.3338M41.3817 48H41.3338M41.3338 48H41.2858M41.3338 48H41.2858M41.2858 48H41.2378M41.2858 48H41.2378M41.2378 48H41.1898M41.2378 48H41.1898M41.1898 48H41.1419M41.1898 48H41.1419M41.1419 48H41.0939M41.1419 48H41.0939M41.0939 48H41.0459M41.0939 48H41.0459M41.0459 48H40.9979M41.0459 48H40.9979M40.9979 48H40.9499M40.9979 48H40.9499M40.9499 48H40.9019M40.9499 48H40.9019M40.9019 48H40.8539M40.9019 48H40.8539M40.8539 48H40.8059M40.8539 48H40.8059M40.8059 48H40.7579M40.8059 48H40.7579M40.7579 48H40.7099M40.7579 48H40.7099M40.7099 48H40.6618M40.7099 48H40.6618M40.6618 48H40.6138M40.6618 48H40.6138M40.6138 48H40.5658M40.6138 48H40.5658M40.5658 48H40.5178M40.5658 48H40.5178M40.5178 48H40.4697M40.5178 48H40.4697M40.4697 48H40.4217M40.4697 48H40.4217M40.4217 48H40.3737M40.4217 48H40.3737M40.3737 48H40.3256M40.3737 48H40.3256M40.3256 48H40.2776M40.3256 48H40.2776M40.2776 48H40.2296M40.2776 48H40.2296M40.2296 48H40.1815M40.2296 48H40.1815M40.1815 48H40.1335M40.1815 48H40.1335M40.1335 48H40.0854M40.1335 48H40.0854M40.0854 48H40.0374M40.0854 48H40.0374M40.0374 48H39.9893M40.0374 48H39.9893M39.9893 48H39.9413M39.9893 48H39.9413M39.9413 48H39.8932M39.9413 48H39.8932M39.8932 48H39.8452M39.8932 48H39.8452M39.8452 48H39.7971M39.8452 48H39.7971M39.7971 48H39.7491M39.7971 48H39.7491M39.7491 48H39.701M39.7491 48H39.701M39.701 48H39.653M39.701 48H39.653M39.653 48H39.6049M39.653 48H39.6049M39.6049 48H39.5569M39.6049 48H39.5569M39.5569 48H39.5088M39.5569 48H39.5088M39.5088 48H39.4608M39.5088 48H39.4608M39.4608 48H39.4127M39.4608 48H39.4127M39.4127 48H39.3647M39.4127 48H39.3647M39.3647 48H39.3166M39.3647 48H39.3166M39.3166 48H39.2686M39.3166 48H39.2686M39.2686 48H39.2205M39.2686 48H39.2205M39.2205 48H39.1725M39.2205 48H39.1725M39.1725 48H39.1244M39.1725 48H39.1244M39.1244 48H39.0764M39.1244 48H39.0764M39.0764 48H39.0284M39.0764 48H39.0284M39.0284 48H38.9803M39.0284 48H38.9803M38.9803 48H38.9323M38.9803 48H38.9323M38.9323 48H38.8842M38.9323 48H38.8842M38.8842 48H38.8362M38.8842 48H38.8362M38.8362 48H38.7882M38.8362 48H38.7882M38.7882 48H38.7401M38.7882 48H38.7401M38.7401 48H38.6921M38.7401 48H38.6921M38.6921 48H38.6441M38.6921 48H38.6441M38.6441 48H38.596M38.6441 48H38.596M38.596 48H38.548M38.596 48H38.548M38.548 48H38.5M38.548 48H38.5M38.5 48H38.4626M38.5 48H38.4626M38.4626 48H38.4253M38.4626 48H38.4253M38.4253 48H38.3878M38.4253 48H38.3878M38.3878 48H38.3504M38.3878 48H38.3504M38.3504 48H38.3129M38.3504 48H38.3129M38.3129 48H38.2754M38.3129 48H38.2754M38.2754 48H38.2379M38.2754 48H38.2379M38.2379 48H38.2003M38.2379 48H38.2003M38.2003 48H38.1627M38.2003 48H38.1627M38.1627 48H38.1251M38.1627 48H38.1251M38.1251 48H38.0874M38.1251 48H38.0874M38.0874 48H38.0497M38.0874 48H38.0497M38.0497 48H38.012M38.0497 48H38.012M38.012 48H37.9743M38.012 48H37.9743M37.9743 48H37.9365M37.9743 48H37.9365M37.9365 48H37.8987M37.9365 48H37.8987M37.8987 48H37.8609M37.8987 48H37.8609M37.8609 48H37.823M37.8609 48H37.823M37.823 48H37.7852M37.823 48H37.7852M37.7852 48H37.7473M37.7852 48H37.7473M37.7473 48H37.7093M37.7473 48H37.7093M37.7093 48H37.6714M37.7093 48H37.6714M37.6714 48H37.6334M37.6714 48H37.6334M37.6334 48H37.5953M37.6334 48H37.5953M37.5953 48H37.5573M37.5953 48H37.5573M37.5573 48H37.5192M37.5573 48H37.5192M37.5192 48H37.4811M37.5192 48H37.4811M37.4811 48H37.443M37.4811 48H37.443M37.443 48H37.4048M37.443 48H37.4048M37.4048 48H37.3667M37.4048 48H37.3667M37.3667 48H37.3285M37.3667 48H37.3285M37.3285 48H37.2902M37.3285 48H37.2902M37.2902 48H37.252M37.2902 48H37.252M37.252 48H37.2137M37.252 48H37.2137M37.2137 48H37.1754M37.2137 48H37.1754M37.1754 48H37.137M37.1754 48H37.137M37.137 48H37.0987M37.137 48H37.0987M37.0987 48H37.0603M37.0987 48H37.0603M37.0603 48H37.0218M37.0603 48H37.0218M37.0218 48H36.9834M37.0218 48H36.9834M36.9834 48H36.9449M36.9834 48H36.9449M36.9449 48H36.9064M36.9449 48H36.9064M36.9064 48H36.8679M36.9064 48H36.8679M36.8679 48H36.8294M36.8679 48H36.8294M36.8294 48H36.7908M36.8294 48H36.7908M36.7908 48H36.7522M36.7908 48H36.7522M36.7522 48H36.7136M36.7522 48H36.7136M36.7136 48H36.6749M36.7136 48H36.6749M36.6749 48H36.6363M36.6749 48H36.6363M36.6363 48H36.5976M36.6363 48H36.5976M36.5976 48H36.5589M36.5976 48H36.5589M36.5589 48H36.5201M36.5589 48H36.5201M36.5201 48H36.4814M36.5201 48H36.4814M36.4814 48H36.4426M36.4814 48H36.4426M36.4426 48H36.4038M36.4426 48H36.4038M36.4038 48H36.3649M36.4038 48H36.3649M36.3649 48H36.3261M36.3649 48H36.3261M36.3261 48H36.2872M36.3261 48H36.2872M36.2872 48H36.2483M36.2872 48H36.2483M36.2483 48H36.2093M36.2483 48H36.2093M36.2093 48H36.1704M36.2093 48H36.1704M36.1704 48H36.1314M36.1704 48H36.1314M36.1314 48H36.0924M36.1314 48H36.0924M36.0924 48H36.0534M36.0924 48H36.0534M36.0534 48H36.0143M36.0534 48H36.0143M36.0143 48H35.9752M36.0143 48H35.9752M35.9752 48H35.9362M35.9752 48H35.9362M35.9362 48H35.897M35.9362 48H35.897M35.897 48H35.8579M35.897 48H35.8579M35.8579 48H35.8187M35.8579 48H35.8187M35.8187 48H35.7796M35.8187 48H35.7796M35.7796 48H35.7403M35.7796 48H35.7403M35.7403 48H35.7011M35.7403 48H35.7011M35.7011 48H35.6619M35.7011 48H35.6619M35.6619 48H35.6226M35.6619 48H35.6226M35.6226 48H35.5833M35.6226 48H35.5833M35.5833 48H35.544M35.5833 48H35.544M35.544 48H35.5047M35.544 48H35.5047M35.5047 48H35.4653M35.5047 48H35.4653M35.4653 48H35.4259M35.4653 48H35.4259M35.4259 48H35.3865M35.4259 48H35.3865M35.3865 48H35.3471M35.3865 48H35.3471M35.3471 48H35.3077M35.3471 48H35.3077M35.3077 48H35.2682M35.3077 48H35.2682M35.2682 48H35.2287M35.2682 48H35.2287M35.2287 48H35.1892M35.2287 48H35.1892M35.1892 48H35.1497M35.1892 48H35.1497M35.1497 48H35.1102M35.1497 48H35.1102M35.1102 48H35.0706M35.1102 48H35.0706M35.0706 48H35.031M35.0706 48H35.031M35.031 48H34.9914M35.031 48H34.9914M34.9914 48H34.9518M34.9914 48H34.9518M34.9518 48H34.9121M34.9518 48H34.9121M34.9121 48H34.8725M34.9121 48H34.8725M34.8725 48H34.8328M34.8725 48H34.8328M34.8328 48H34.7931M34.8328 48H34.7931M34.7931 48H34.7534M34.7931 48H34.7534M34.7534 48H34.7136M34.7534 48H34.7136M34.7136 48H34.6739M34.7136 48H34.6739M34.6739 48H34.6341M34.6739 48H34.6341M34.6341 48H34.5943M34.6341 48H34.5943M34.5943 48H34.5545M34.5943 48H34.5545M34.5545 48H34.5146M34.5545 48H34.5146M34.5146 48H34.4748M34.5146 48H34.4748M34.4748 48H34.4349M34.4748 48H34.4349M34.4349 48H34.395M34.4349 48H34.395M34.395 48H34.3551M34.395 48H34.3551M34.3551 48H34.3152M34.3551 48H34.3152M34.3152 48H34.2752M34.3152 48H34.2752M34.2752 48H34.2353M34.2752 48H34.2353M34.2353 48H34.1953M34.2353 48H34.1953M34.1953 48H34.1553M34.1953 48H34.1553M34.1553 48H34.1153M34.1553 48H34.1153M34.1153 48H34.0753M34.1153 48H34.0753M34.0753 48H34.0352M34.0753 48H34.0352M34.0352 48H33.9951M34.0352 48H33.9951M33.9951 48H33.9551M33.9951 48H33.9551M33.9551 48H33.915M33.9551 48H33.915M33.915 48H33.8748M33.915 48H33.8748M33.8748 48H33.8347M33.8748 48H33.8347M33.8347 48H33.7946M33.8347 48H33.7946M33.7946 48H33.7544M33.7946 48H33.7544M33.7544 48H33.7142M33.7544 48H33.7142M33.7142 48H33.674M33.7142 48H33.674M33.674 48H33.6338M33.674 48H33.6338M33.6338 48H33.5936M33.6338 48H33.5936M33.5936 48H33.5533M33.5936 48H33.5533M33.5533 48H33.513M33.5533 48H33.513M33.513 48H33.4728M33.513 48H33.4728M33.4728 48H33.4325M33.4728 48H33.4325M33.4325 48H33.3922M33.4325 48H33.3922M33.3922 48H33.3518M33.3922 48H33.3518M33.3518 48H33.3115M33.3518 48H33.3115M33.3115 48H33.2711M33.3115 48H33.2711M33.2711 48H33.2308M33.2711 48H33.2308M33.2308 48H33.1904M33.2308 48H33.1904M33.1904 48H33.15M33.1904 48H33.15M33.15 48H33.1096M33.15 48H33.1096M33.1096 48H33.0691M33.1096 48H33.0691M33.0691 48H33.0287M33.0691 48H33.0287M33.0287 48H32.9882M33.0287 48H32.9882M32.9882 48H32.9478M32.9882 48H32.9478M32.9478 48H32.9073M32.9478 48H32.9073M32.9073 48H32.8668M32.9073 48H32.8668M32.8668 48H32.8262M32.8668 48H32.8262M32.8262 48H32.7857M32.8262 48H32.7857M32.7857 48H32.7452M32.7857 48H32.7452M32.7452 48H32.7046M32.7452 48H32.7046M32.7046 48H32.664M32.7046 48H32.664M32.664 48H32.6235M32.664 48H32.6235M32.6235 48H32.5829M32.6235 48H32.5829M32.5829 48H32.5423M32.5829 48H32.5423M32.5423 48H32.5016M32.5423 48H32.5016M32.5016 48H32.461M32.5016 48H32.461M32.461 48H32.4203M32.461 48H32.4203M32.4203 48H32.3797M32.4203 48H32.3797M32.3797 48H32.339M32.3797 48H32.339M32.339 48H32.2983M32.339 48H32.2983M32.2983 48H32.2576M32.2983 48H32.2576M32.2576 48H32.2169M32.2576 48H32.2169M32.2169 48H32.1762M32.2169 48H32.1762M32.1762 48H32.1355M32.1762 48H32.1355M32.1355 48H32.0947M32.1355 48H32.0947M32.0947 48H32.0539M32.0947 48H32.0539M32.0539 48H32.0132M32.0539 48H32.0132M32.0132 48H31.9724M32.0132 48H31.9724M31.9724 48H31.9316M31.9724 48H31.9316M31.9316 48H31.8908M31.9316 48H31.8908M31.8908 48H31.85M31.8908 48H31.85M31.85 48H31.8091M31.85 48H31.8091M31.8091 48H31.7683M31.8091 48H31.7683M31.7683 48H31.7275M31.7683 48H31.7275M31.7275 48H31.6866M31.7275 48H31.6866M31.6866 48H31.6457M31.6866 48H31.6457M31.6457 48H31.6048M31.6457 48H31.6048M31.6048 48H31.5639M31.6048 48H31.5639M31.5639 48H31.523M31.5639 48H31.523M31.523 48H31.4821M31.523 48H31.4821M31.4821 48H31.4412M31.4821 48H31.4412M31.4412 48H31.4003M31.4412 48H31.4003M31.4003 48H31.3593M31.4003 48H31.3593M31.3593 48H31.3184M31.3593 48H31.3184M31.3184 48H31.2774M31.3184 48H31.2774M31.2774 48H31.2364M31.2774 48H31.2364M31.2364 48H31.1955M31.2364 48H31.1955M31.1955 48H31.1545M31.1955 48H31.1545M31.1545 48H31.1135M31.1545 48H31.1135M31.1135 48H31.0725M31.1135 48H31.0725M31.0725 48H31.0314M31.0725 48H31.0314M31.0314 48H30.9904M31.0314 48H30.9904M30.9904 48H30.9494M30.9904 48H30.9494M30.9494 48H30.9083M30.9494 48H30.9083M30.9083 48H30.8673M30.9083 48H30.8673M30.8673 48H30.8262M30.8673 48H30.8262M30.8262 48H30.7852M30.8262 48H30.7852M30.7852 48H30.7441M30.7852 48H30.7441M30.7441 48H30.703M30.7441 48H30.703M30.703 48H30.6619M30.703 48H30.6619M30.6619 48H30.6208M30.6619 48H30.6208M30.6208 48H30.5797M30.6208 48H30.5797M30.5797 48H30.5386M30.5797 48H30.5386M30.5386 48H30.4974M30.5386 48H30.4974M30.4974 48H30.4563M30.4974 48H30.4563M30.4563 48H30.4152M30.4563 48H30.4152M30.4152 48H30.374M30.4152 48H30.374M30.374 48H30.3329M30.374 48H30.3329M30.3329 48H30.2917M30.3329 48H30.2917M30.2917 48H30.2505M30.2917 48H30.2505M30.2505 48H30.2094M30.2505 48H30.2094M30.2094 48H30.1682M30.2094 48H30.1682M30.1682 48H30.127M30.1682 48H30.127M30.127 48H30.0858M30.127 48H30.0858M30.0858 48H30.0446M30.0858 48H30.0446M30.0446 48H30.0034M30.0446 48H30.0034M30.0034 48H29.9622M30.0034 48H29.9622M29.9622 48H29.9209M29.9622 48H29.9209M29.9209 48H29.8797M29.9209 48H29.8797M29.8797 48H29.8385M29.8797 48H29.8385M29.8385 48H29.7973M29.8385 48H29.7973M29.7973 48H29.756M29.7973 48H29.756M29.756 48H29.7148M29.756 48H29.7148M29.7148 48H29.6735M29.7148 48H29.6735M29.6735 48H29.6322M29.6735 48H29.6322M29.6322 48H29.591M29.6322 48H29.591M29.591 48H29.5497M29.591 48H29.5497M29.5497 48H29.5084M29.5497 48H29.5084M29.5084 48H29.4672M29.5084 48H29.4672M29.4672 48H29.4259M29.4672 48H29.4259M29.4259 48H29.3846M29.4259 48H29.3846M29.3846 48H29.3433M29.3846 48H29.3433M29.3433 48H29.302M29.3433 48H29.302M29.302 48H29.2607M29.302 48H29.2607M29.2607 48H29.2194M29.2607 48H29.2194M29.2194 48H29.1781M29.2194 48H29.1781M29.1781 48H29.1368M29.1781 48H29.1368M29.1368 48H29.0955M29.1368 48H29.0955M29.0955 48H29.0541M29.0955 48H29.0541M29.0541 48H29.0128M29.0541 48H29.0128M29.0128 48H28.9715M29.0128 48H28.9715M28.9715 48H28.9302M28.9715 48H28.9302M28.9302 48H28.8888M28.9302 48H28.8888M28.8888 48H28.8475M28.8888 48H28.8475M28.8475 48H28.8062M28.8475 48H28.8062M28.8062 48H28.7648M28.8062 48H28.7648M28.7648 48H28.7235M28.7648 48H28.7235M28.7235 48H28.6821M28.7235 48H28.6821M28.6821 48H28.6408M28.6821 48H28.6408M28.6408 48H28.5994M28.6408 48H28.5994M28.5994 48H28.5581M28.5994 48H28.5581M28.5581 48H28.5167M28.5581 48H28.5167M28.5167 48H28.4753M28.5167 48H28.4753M28.4753 48H28.434M28.4753 48H28.434M28.434 48H28.3926M28.434 48H28.3926M28.3926 48H28.3512M28.3926 48H28.3512M28.3512 48H28.3099M28.3512 48H28.3099M28.3099 48H28.2685M28.3099 48H28.2685M28.2685 48H28.2271M28.2685 48H28.2271M28.2271 48H28.1858M28.2271 48H28.1858M28.1858 48H28.1444M28.1858 48H28.1444M28.1444 48H28.103M28.1444 48H28.103M28.103 48H28.0617M28.103 48H28.0617M28.0617 48H28.0203M28.0617 48H28.0203M28.0203 48H27.9789M28.0203 48H27.9789M27.9789 48H27.9375M27.9789 48H27.9375M27.9375 48H27.8962M27.9375 48H27.8962M27.8962 48H27.8548M27.8962 48H27.8548M27.8548 48H27.8134M27.8548 48H27.8134M27.8134 48H27.772M27.8134 48H27.772M27.772 48H27.7306M27.772 48H27.7306M27.7306 48H27.6893M27.7306 48H27.6893M27.6893 48H27.6479M27.6893 48H27.6479M27.6479 48H27.6065M27.6479 48H27.6065M27.6065 48H27.5651M27.6065 48H27.5651M27.5651 48H27.5238M27.5651 48H27.5238M27.5238 48H27.4824M27.5238 48H27.4824M27.4824 48H27.441M27.4824 48H27.441M27.441 48H27.3996M27.441 48H27.3996M27.3996 48H27.3583M27.3996 48H27.3583M27.3583 48H27.3169M27.3583 48H27.3169M27.3169 48H27.2755M27.3169 48H27.2755M27.2755 48H27.2341M27.2755 48H27.2341M27.2341 48H27.1928M27.2341 48H27.1928M27.1928 48H27.1514M27.1928 48H27.1514M27.1514 48H27.11M27.1514 48H27.11M27.11 48H27.0687M27.11 48H27.0687M27.0687 48H27.0273M27.0687 48H27.0273M27.0273 48H26.9859M27.0273 48H26.9859M26.9859 48H26.9446M26.9859 48H26.9446M26.9446 48H26.9032M26.9446 48H26.9032M26.9032 48H26.8619M26.9032 48H26.8619M26.8619 48H26.8205M26.8619 48H26.8205M26.8205 48H26.7792M26.8205 48H26.7792M26.7792 48H26.7378M26.7792 48H26.7378M26.7378 48H26.6965M26.7378 48H26.6965M26.6965 48H26.6551M26.6965 48H26.6551M26.6551 48H26.6138M26.6551 48H26.6138M26.6138 48H26.5725M26.6138 48H26.5725M26.5725 48H26.5311M26.5725 48H26.5311M26.5311 48H26.4898M26.5311 48H26.4898M26.4898 48H26.4485M26.4898 48H26.4485M26.4485 48H26.4072M26.4485 48H26.4072M26.4072 48H26.3659M26.4072 48H26.3659M26.3659 48H26.3245M26.3659 48H26.3245M26.3245 48H26.2832M26.3245 48H26.2832M26.2832 48H26.2419M26.2832 48H26.2419M26.2419 48H26.2006M26.2419 48H26.2006M26.2006 48H26.1593M26.2006 48H26.1593M26.1593 48H26.118M26.1593 48H26.118M26.118 48H26.0767M26.118 48H26.0767M26.0767 48H26.0355M26.0767 48H26.0355M26.0355 48H25.9942M26.0355 48H25.9942M25.9942 48H25.9529M25.9942 48H25.9529M25.9529 48H25.9116M25.9529 48H25.9116M25.9116 48H25.8704M25.9116 48H25.8704M25.8704 48H25.8291M25.8704 48H25.8291M25.8291 48H25.7878M25.8291 48H25.7878M25.7878 48H25.7466M25.7878 48H25.7466M25.7466 48H25.7053M25.7466 48H25.7053M25.7053 48H25.6641M25.7053 48H25.6641M25.6641 48H25.6229M25.6641 48H25.6229M25.6229 48H25.5816M25.6229 48H25.5816M25.5816 48H25.5404M25.5816 48H25.5404M25.5404 48H25.4992M25.5404 48H25.4992M25.4992 48H25.458M25.4992 48H25.458M25.458 48H25.4168M25.458 48H25.4168M25.4168 48H25.3756M25.4168 48H25.3756M25.3756 48H25.3344M25.3756 48H25.3344M25.3344 48H25.2932M25.3344 48H25.2932M25.2932 48H25.252M25.2932 48H25.252M25.252 48H25.2109M25.252 48H25.2109M25.2109 48H25.1697M25.2109 48H25.1697M25.1697 48H25.1285M25.1697 48H25.1285M25.1285 48H25.0874M25.1285 48H25.0874M25.0874 48H25.0462M25.0874 48H25.0462M25.0462 48H25.0051M25.0462 48H25.0051M25.0051 48H24.964M25.0051 48H24.964M24.964 48H24.9229M24.964 48H24.9229M24.9229 48H24.8817M24.9229 48H24.8817M24.8817 48H24.8406M24.8817 48H24.8406M24.8406 48H24.7995M24.8406 48H24.7995M24.7995 48H24.7585M24.7995 48H24.7585M24.7585 48H24.7174M24.7585 48H24.7174M24.7174 48H24.6763M24.7174 48H24.6763M24.6763 48H24.6352M24.6763 48H24.6352M24.6352 48H24.5942M24.6352 48H24.5942M24.5942 48H24.5531M24.5942 48H24.5531M24.5531 48H24.5121M24.5531 48H24.5121M24.5121 48H24.4711M24.5121 48H24.4711M24.4711 48H24.43M24.4711 48H24.43M24.43 48H24.389M24.43 48H24.389M24.389 48H24.348M24.389 48H24.348M24.348 48H24.307M24.348 48H24.307M24.307 48H24.266M24.307 48H24.266M24.266 48H24.2251M24.266 48H24.2251M24.2251 48H24.1841M24.2251 48H24.1841M24.1841 48H24.1431M24.1841 48H24.1431M24.1431 48H24.1022M24.1431 48H24.1022M24.1022 48H24.0612M24.1022 48H24.0612M24.0612 48H24.0203M24.0612 48H24.0203M24.0203 48H23.9794M24.0203 48H23.9794M23.9794 48H23.9385M23.9794 48H23.9385M23.9385 48H23.8976M23.9385 48H23.8976M23.8976 48H23.8567M23.8976 48H23.8567M23.8567 48H23.8158M23.8567 48H23.8158M23.8158 48H23.775M23.8158 48H23.775M23.775 48H23.7341M23.775 48H23.7341M23.7341 48H23.6933M23.7341 48H23.6933M23.6933 48H23.6524M23.6933 48H23.6524M23.6524 48H23.6116M23.6524 48H23.6116M23.6116 48H23.5708M23.6116 48H23.5708M23.5708 48H23.53M23.5708 48H23.53M23.53 48H23.4892M23.53 48H23.4892M23.4892 48H23.4484M23.4892 48H23.4484M23.4484 48H23.4077M23.4484 48H23.4077M23.4077 48H23.3669M23.4077 48H23.3669M23.3669 48H23.3262M23.3669 48H23.3262M23.3262 48H23.2854M23.3262 48H23.2854M23.2854 48H23.2447M23.2854 48H23.2447M23.2447 48H23.204M23.2447 48H23.204M23.204 48H23.1633M23.204 48H23.1633M23.1633 48H23.1227M23.1633 48H23.1227M23.1227 48H23.082M23.1227 48H23.082M23.082 48H23.0413M23.082 48H23.0413M23.0413 48H23.0007M23.0413 48H23.0007M23.0007 48H22.9601M23.0007 48H22.9601M22.9601 48H22.9194M22.9601 48H22.9194M22.9194 48H22.8788M22.9194 48H22.8788M22.8788 48H22.8383M22.8788 48H22.8383M22.8383 48H22.7977M22.8383 48H22.7977M22.7977 48H22.7571M22.7977 48H22.7571M22.7571 48H22.7166M22.7571 48H22.7166M22.7166 48H22.676M22.7166 48H22.676M22.676 48H22.6355M22.676 48H22.6355M22.6355 48H22.595M22.6355 48H22.595M22.595 48H22.5545M22.595 48H22.5545M22.5545 48H22.514M22.5545 48H22.514M22.514 48H22.4736M22.514 48H22.4736M22.4736 48H22.4331M22.4736 48H22.4331M22.4331 48H22.3927M22.4331 48H22.3927M22.3927 48H22.3522M22.3927 48H22.3522M22.3522 48H22.3118M22.3522 48H22.3118M22.3118 48H22.2714M22.3118 48H22.2714M22.2714 48H22.2311M22.2714 48H22.2311M22.2311 48H22.1907M22.2311 48H22.1907M22.1907 48H22.1504M22.1907 48H22.1504M22.1504 48H22.11M22.1504 48H22.11M22.11 48H22.0697M22.11 48H22.0697M22.0697 48H22.0294M22.0697 48H22.0294M22.0294 48H21.9891M22.0294 48H21.9891M21.9891 48H21.9488M21.9891 48H21.9488M21.9488 48H21.9086M21.9488 48H21.9086M21.9086 48H21.8683M21.9086 48H21.8683M21.8683 48H21.8281M21.8683 48H21.8281M21.8281 48H21.7879M21.8281 48H21.7879M21.7879 48H21.7477M21.7879 48H21.7477M21.7477 48H21.7076M21.7477 48H21.7076M21.7076 48H21.6674M21.7076 48H21.6674M21.6674 48H21.6273M21.6674 48H21.6273M21.6273 48H21.5871M21.6273 48H21.5871M21.5871 48H21.547M21.5871 48H21.547M21.547 48H21.5069M21.547 48H21.5069M21.5069 48H21.4669M21.5069 48H21.4669M21.4669 48H21.4268M21.4669 48H21.4268M21.4268 48H21.3868M21.4268 48H21.3868M21.3868 48H21.3467M21.3868 48H21.3467M21.3467 48H21.3067M21.3467 48H21.3067M21.3067 48H21.2667M21.3067 48H21.2667M21.2667 48H21.2268M21.2667 48H21.2268M21.2268 48H21.1868M21.2268 48H21.1868M21.1868 48H21.1469M21.1868 48H21.1469M21.1469 48H21.107M21.1469 48H21.107M21.107 48H21.0671M21.107 48H21.0671M21.0671 48H21.0272M21.0671 48H21.0272M21.0272 48H20.9873M21.0272 48H20.9873M20.9873 48H20.9475M20.9873 48H20.9475M20.9475 48H20.9077M20.9475 48H20.9077M20.9077 48H20.8679M20.9077 48H20.8679M20.8679 48H20.8281M20.8679 48H20.8281M20.8281 48H20.7883M20.8281 48H20.7883M20.7883 48H20.7486M20.7883 48H20.7486M20.7486 48H20.7088M20.7486 48H20.7088M20.7088 48H20.6691M20.7088 48H20.6691M20.6691 48H20.6294M20.6691 48H20.6294M20.6294 48H20.5898M20.6294 48H20.5898M20.5898 48H20.5501M20.5898 48H20.5501M20.5501 48H20.5105M20.5501 48H20.5105M20.5105 48H20.4709M20.5105 48H20.4709M20.4709 48H20.4313M20.4709 48H20.4313M20.4313 48H20.3917M20.4313 48H20.3917M20.3917 48H20.3521M20.3917 48H20.3521M20.3521 48H20.3126M20.3521 48H20.3126M20.3126 48H20.2731M20.3126 48H20.2731M20.2731 48H20.2336M20.2731 48H20.2336M20.2336 48H20.1941M20.2336 48H20.1941M20.1941 48H20.1547M20.1941 48H20.1547M20.1547 48H20.1152M20.1547 48H20.1152M20.1152 48H20.0758M20.1152 48H20.0758M20.0758 48H20.0365M20.0758 48H20.0365M20.0365 48H19.9971M20.0365 48H19.9971M19.9971 48H19.9577M19.9971 48H19.9577M19.9577 48H19.9184M19.9577 48H19.9184M19.9184 48H19.8791M19.9184 48H19.8791M19.8791 48H19.8398M19.8791 48H19.8398M19.8398 48H19.8006M19.8398 48H19.8006M19.8006 48H19.7613M19.8006 48H19.7613M19.7613 48H19.7221M19.7613 48H19.7221M19.7221 48H19.6829M19.7221 48H19.6829M19.6829 48H19.6438M19.6829 48H19.6438M19.6438 48H19.6046M19.6438 48H19.6046M19.6046 48H19.5655M19.6046 48H19.5655M19.5655 48H19.5264M19.5655 48H19.5264M19.5264 48H19.4873M19.5264 48H19.4873M19.4873 48H19.4482M19.4873 48H19.4482M19.4482 48H19.4092M19.4482 48H19.4092M19.4092 48H19.3702M19.4092 48H19.3702M19.3702 48H19.3312M19.3702 48H19.3312M19.3312 48H19.2922M19.3312 48H19.2922M19.2922 48H19.2533M19.2922 48H19.2533M19.2533 48H19.2144M19.2533 48H19.2144M19.2144 48H19.1755M19.2144 48H19.1755M19.1755 48H19.1366M19.1755 48H19.1366M19.1366 48H19.0978M19.1366 48H19.0978M19.0978 48H19.0589M19.0978 48H19.0589M19.0589 48H19.0201M19.0589 48H19.0201M19.0201 48H18.9814M19.0201 48H18.9814M18.9814 48H18.9426M18.9814 48H18.9426M18.9426 48H18.9039M18.9426 48H18.9039M18.9039 48H18.8652M18.9039 48H18.8652M18.8652 48H18.8265M18.8652 48H18.8265M18.8265 48H18.7878M18.8265 48H18.7878M18.7878 48H18.7492M18.7878 48H18.7492M18.7492 48H18.7106M18.7492 48H18.7106M18.7106 48H18.672M18.7106 48H18.672M18.672 48H18.6335M18.672 48H18.6335M18.6335 48H18.5949M18.6335 48H18.5949M18.5949 48H18.5564M18.5949 48H18.5564M18.5564 48H18.5179M18.5564 48H18.5179M18.5179 48H18.4795M18.5179 48H18.4795M18.4795 48H18.4411M18.4795 48H18.4411M18.4411 48H18.4027M18.4411 48H18.4027M18.4027 48H18.3643M18.4027 48H18.3643M18.3643 48H18.3259M18.3643 48H18.3259M18.3259 48H18.2876M18.3259 48H18.2876M18.2876 48H18.2493M18.2876 48H18.2493M18.2493 48H18.211M18.2493 48H18.211M18.211 48H18.1728M18.211 48H18.1728M18.1728 48H18.1346M18.1728 48H18.1346M18.1346 48H18.0964M18.1346 48H18.0964M18.0964 48H18.0582M18.0964 48H18.0582M18.0582 48H18.0201M18.0582 48H18.0201M18.0201 48H17.9819M18.0201 48H17.9819M17.9819 48H17.9439M17.9819 48H17.9439M17.9439 48C17.7382 48 17.6536 47.9392 17.6103 47.8998L17.9439 48Z" stroke="black" stroke-width="4"/>
<rect width="72" height="61" fill="white" fill-opacity="0.01"/>
</svg>
